<svg width="72" height="62" viewBox="0 0 72 62" fill="none" xmlns="http://www.w3.org/2000/svg">
<path d="M13.1926 40.6219C9.84636 40.6219 7.04792 39.4966 4.79733 37.246C2.57634 34.9954 1.46585 32.2117 1.46585 28.8951C1.46585 25.5784 2.57634 22.7948 4.79733 20.5442C7.04792 18.2936 9.84636 17.1683 13.1926 17.1683C15.3544 17.1683 17.3237 17.6865 19.1005 18.723C20.8773 19.7594 22.2246 21.1512 23.1427 22.8984L18.2121 25.7857C17.7679 24.8677 17.0868 24.1422 16.1688 23.6091C15.2804 23.0761 14.2735 22.8096 13.1482 22.8096C11.4307 22.8096 10.0092 23.387 8.88394 24.5419C7.75864 25.6672 7.19599 27.1183 7.19599 28.8951C7.19599 30.6423 7.75864 32.0933 8.88394 33.2482C10.0092 34.3735 11.4307 34.9362 13.1482 34.9362C14.3031 34.9362 15.3248 34.6844 16.2132 34.181C17.1312 33.648 17.8123 32.9225 18.2565 32.0045L23.2315 34.8473C22.2543 36.5945 20.8773 38.0011 19.1005 39.0672C17.3237 40.1036 15.3544 40.6219 13.1926 40.6219Z" fill="#4285F4"/>
<path d="M66.4603 37.246C64.1801 39.4966 61.3965 40.6219 58.1094 40.6219C54.8223 40.6219 52.0387 39.4966 49.7585 37.246C47.5079 34.9658 46.3826 32.1821 46.3826 28.8951C46.3826 25.608 47.5079 22.8392 49.7585 20.5886C52.0387 18.3084 54.8223 17.1683 58.1094 17.1683C61.3965 17.1683 64.1801 18.3084 66.4603 20.5886C68.7405 22.8392 69.8806 25.608 69.8806 28.8951C69.8806 32.1821 68.7405 34.9658 66.4603 37.246ZM53.8007 33.2926C54.9556 34.4475 56.3918 35.025 58.1094 35.025C59.827 35.025 61.2632 34.4475 62.4181 33.2926C63.573 32.1377 64.1505 30.6719 64.1505 28.8951C64.1505 27.1183 63.573 25.6524 62.4181 24.4975C61.2632 23.3426 59.827 22.7652 58.1094 22.7652C56.3918 22.7652 54.9556 23.3426 53.8007 24.4975C52.6754 25.6524 52.1127 27.1183 52.1127 28.8951C52.1127 30.6719 52.6754 32.1377 53.8007 33.2926Z" fill="#34A853"/>
<path d="M11.3947 55.127C9.85518 55.127 8.56774 54.6093 7.53234 53.5739C6.51056 52.5249 5.99967 51.251 5.99967 49.7524C5.99967 48.2266 6.51056 46.9528 7.53234 45.931C8.56774 44.8956 9.85518 44.3779 11.3947 44.3779C12.3892 44.3779 13.2952 44.6163 14.1126 45.0931C14.93 45.57 15.5431 46.2103 15.9518 47.0141L14.0513 48.1176C13.8197 47.6271 13.4655 47.2457 12.9886 46.9732C12.5254 46.6871 11.9873 46.5441 11.3742 46.5441C10.4751 46.5441 9.71894 46.8506 9.10587 47.4637C8.50643 48.0903 8.20671 48.8533 8.20671 49.7524C8.20671 50.6516 8.50643 51.4145 9.10587 52.0412C9.71894 52.6543 10.4751 52.9608 11.3742 52.9608C11.9737 52.9608 12.5118 52.8246 12.9886 52.5521C13.4791 52.266 13.8469 51.8777 14.0921 51.3873L15.9927 52.4704C15.5567 53.2878 14.9232 53.9349 14.0921 54.4117C13.2747 54.8886 12.3756 55.127 11.3947 55.127ZM20.5905 52.0617L23.2062 44.6435H25.5563L21.6327 55.1883C20.6518 57.8313 18.9897 59.0847 16.6464 58.9484V56.8844C17.3276 56.9253 17.8794 56.7823 18.3017 56.4553C18.7241 56.1283 19.0783 55.6038 19.3644 54.8818L19.4665 54.6774L15.1342 44.6435H17.5456L20.5905 52.0617ZM35.3763 51.6938L37.3789 44.6435H39.7086L36.5002 54.8613H34.334L32.2088 47.9745L30.063 54.8613H27.8968L24.6885 44.6435H27.0181L29.0004 51.6938L31.1461 44.6435H33.251L35.3763 51.6938ZM47.6989 46.0945V44.6435H49.9059V54.8613H47.6989V53.39C46.8679 54.548 45.6758 55.127 44.1227 55.127C42.7194 55.127 41.5206 54.6093 40.526 53.5739C39.5315 52.5385 39.0342 51.2647 39.0342 49.7524C39.0342 48.2402 39.5315 46.9664 40.526 45.931C41.5206 44.8956 42.7194 44.3779 44.1227 44.3779C45.6758 44.3779 46.8679 44.9501 47.6989 46.0945ZM42.1609 52.1025C42.7739 52.7156 43.5437 53.0221 44.4701 53.0221C45.3965 53.0221 46.1662 52.7156 46.7793 52.1025C47.3924 51.4758 47.6989 50.6925 47.6989 49.7524C47.6989 48.8124 47.3924 48.0359 46.7793 47.4228C46.1662 46.7961 45.3965 46.4827 44.4701 46.4827C43.5437 46.4827 42.7739 46.7961 42.1609 47.4228C41.5478 48.0359 41.2413 48.8124 41.2413 49.7524C41.2413 50.6789 41.5478 51.4622 42.1609 52.1025ZM55.4212 52.0617L58.0369 44.6435H60.387L56.4634 55.1883C55.4825 57.8313 53.8204 59.0847 51.4771 58.9484V56.8844C52.1583 56.9253 52.71 56.7823 53.1324 56.4553C53.5547 56.1283 53.9089 55.6038 54.195 54.8818L54.2972 54.6774L49.9649 44.6435H52.3763L55.4212 52.0617ZM67.6368 46.1149L62.8753 52.7769H67.8412V54.8613H59.8713V53.39L64.6532 46.728H60.0757V44.6435H67.6368V46.1149Z" fill="black"/>
<path fill-rule="evenodd" clip-rule="evenodd" d="M50.7414 6.9822C50.2257 7.11724 36.9527 21.6506 35.5469 23.6198L34.9987 24.3874L34.138 23.3796C31.9962 20.8726 31.6317 20.5199 30.6656 20.0204C29.9249 19.6374 28.905 19.5168 27.002 19.587L24.3647 19.6845L27.8227 24.0514C29.7243 26.4533 31.709 28.6821 32.2327 29.0046C33.3231 29.6755 35.9251 29.7853 37.1808 29.2132C37.6404 29.0036 39.36 27.3032 41.0016 25.4341C43.991 22.0309 54.6522 9.5762 56.1548 7.73198L54.1647 7.13674H53.6693C52.1213 7.15824 51.0622 6.89822 50.7414 6.9822ZM27.6184 33.7076C25.8763 35.7261 24.0358 37.8562 23.5282 38.4407L22.6055 39.5039L25.7779 39.6C29.9353 39.7256 30.7714 39.3618 32.8572 36.5216C33.7554 35.2981 34.5966 34.2971 34.7266 34.2971C34.8562 34.2971 35.4475 35.0526 36.0397 35.9757C38.1479 39.2614 39.2921 39.7794 44.0555 39.606L46.8641 39.5039L42.7618 34.885C40.5055 32.3447 38.6028 30.266 38.5336 30.266C38.4647 30.266 37.9131 30.5677 37.3081 30.9365C35.8334 31.8358 33.8515 31.7908 32.1534 30.8193L30.7855 30.0373L27.6184 33.7076Z" fill="url(#paint0_linear_1_484)"/>
<path d="M55.7761 2.9761C56.2406 2.76924 56.7548 3.1428 56.7017 3.6485L55.9975 10.3541C55.9444 10.8598 55.3638 11.1184 54.9524 10.8195L49.4972 6.85688C49.0858 6.55804 49.1522 5.92591 49.6167 5.71905L55.7761 2.9761Z" fill="url(#paint1_linear_1_484)"/>
<path fill-rule="evenodd" clip-rule="evenodd" d="M27.6184 33.7094C25.8763 35.7279 24.0358 37.858 23.5282 38.4425L22.6055 39.5057L25.7779 39.6018C29.9353 39.7274 30.7714 39.3636 32.8572 36.5234C33.7554 35.2999 34.5966 34.2989 34.7266 34.2989C34.8562 34.2989 35.4475 35.0544 36.0397 35.9775C38.1479 39.2632 39.2921 39.7812 44.0555 39.6078L46.8641 39.5057L42.7618 34.8868C40.5055 32.3465 38.6028 30.2678 38.5336 30.2678C38.4647 30.2678 37.9131 30.5695 37.3081 30.9383C35.8334 31.8376 33.8515 31.7926 32.1534 30.8211L30.7855 30.0391L27.6184 33.7094Z" fill="#EA4335"/>
<defs>
<linearGradient id="paint0_linear_1_484" x1="53.0087" y1="1.85242" x2="28.7339" y2="39.5032" gradientUnits="userSpaceOnUse">
<stop stop-color="#FBBC05"/>
<stop offset="1" stop-color="#AF4B09"/>
</linearGradient>
<linearGradient id="paint1_linear_1_484" x1="53.0087" y1="1.85242" x2="28.7339" y2="39.5032" gradientUnits="userSpaceOnUse">
<stop stop-color="#FBBC05"/>
<stop offset="1" stop-color="#AF4B09"/>
</linearGradient>
</defs>
</svg>
